<svg id="Layer_1" data-name="Layer 1" xmlns="http://www.w3.org/2000/svg" viewBox="0 0 500 500"><defs><style>.cls-1{fill:#00c1db;}</style></defs><title>consumer</title><path class="cls-1" d="M405.25,235.14c-13.82-6.91-39.73-7-40.83-7a5.95,5.95,0,0,0,0,11.9c6.69,0,26.1,1,35.51,5.73a5.95,5.95,0,0,0,5.32-10.64Z"/><path class="cls-1" d="M434.91,319.84l-24.57-7a2.49,2.49,0,0,1-1.8-2.39v-8.2a44.71,44.71,0,0,0,5.69-4.67,43.77,43.77,0,0,0,13.4-31.66V254.58l2.38-4.75a38,38,0,0,0,4-16.88V202.29a6,6,0,0,0-5.95-5.95H370.79A37.8,37.8,0,0,0,333,234.1v.35a31.56,31.56,0,0,0,3.31,14l3,6.09v9.72a46.42,46.42,0,0,0,19.08,37.53v8.6c0,1.33,0,1.87-4.91,3.28l-12,3.43-34.68-12.61a5.94,5.94,0,0,0-1.62-4.55l-11.08-11.64V268.78c1.17-1,2.33-2,3.45-3a69.82,69.82,0,0,0,22-50.76V199.4A68.77,68.77,0,0,0,326,170.48V106.87a6,6,0,0,0-5.95-5.95H231a56.9,56.9,0,0,0-56.84,56.84v12.72a68.77,68.77,0,0,0,6.36,28.92v13.43A72.69,72.69,0,0,0,206,268.32v20L194.88,300a5.94,5.94,0,0,0-1.62,4.55l-36.6,13.31a31.2,31.2,0,0,0-7.35,3.85l-5.75-2.87c17.11-7.45,22.53-17.92,22.79-18.44a6,6,0,0,0,0-5.32c-4.29-8.58-4.81-24.3-5.23-36.93-.14-4.21-.27-8.18-.52-11.72-2-28.54-23.72-50.06-50.46-50.06S61.7,217.86,59.67,246.4c-.25,3.54-.38,7.51-.52,11.72-.42,12.63-.94,28.35-5.23,36.93a6,6,0,0,0,0,5.32c.26.52,5.67,11,22.81,18.43l-16,8a24.9,24.9,0,0,0-13.84,22.39v44a5.95,5.95,0,0,0,11.9,0v-44a13.06,13.06,0,0,1,7.26-11.75L86,327.48l6.92,6.57a25,25,0,0,0,34.49,0l6.91-6.57,6.48,3.24A31.33,31.33,0,0,0,136,347.34v45.79a5.95,5.95,0,0,0,11.9,0V347.34A19.55,19.55,0,0,1,160.72,329l38.59-14,16.07,24.1a12.27,12.27,0,0,0,9,5.42q.62.06,1.23.06a12.26,12.26,0,0,0,8.69-3.61l9.8-9.8v62a5.95,5.95,0,0,0,11.9,0v-62l9.8,9.8a12.26,12.26,0,0,0,8.69,3.61q.61,0,1.23-.06a12.27,12.27,0,0,0,9-5.42L300.84,315l38.59,14a19.56,19.56,0,0,1,12.83,18.32v45.79a5.95,5.95,0,1,0,11.9,0V347.34a31.45,31.45,0,0,0-8.8-21.77l1.47-.42a32.63,32.63,0,0,0,5.54-2l15.19,15.19v54.79a5.95,5.95,0,0,0,11.9,0V338.34l15.08-15.08a14.15,14.15,0,0,0,2.53,1l24.57,7a13.19,13.19,0,0,1,9.53,12.63v49.22a5.95,5.95,0,0,0,11.9,0V343.91A25.14,25.14,0,0,0,434.91,319.84ZM85.1,309.33C74,305.33,68.39,300,66,297.07a65.58,65.58,0,0,0,3.39-14.25A44.36,44.36,0,0,0,85.1,302.2Zm34.08,16.1a13.13,13.13,0,0,1-18.1,0l-5.53-5.26A12.31,12.31,0,0,0,97,314.36V308a44.24,44.24,0,0,0,26.27,0v6.34a12.31,12.31,0,0,0,1.45,5.81Zm-9-27.31A32.25,32.25,0,0,1,77.92,265.9,5.91,5.91,0,0,0,71,260c0-.51,0-1,.05-1.53.13-4.09.26-8,.5-11.27a44.17,44.17,0,0,1,12-27.74,37,37,0,0,1,53.13,0,44.17,44.17,0,0,1,12,27.74c.23,3.31.36,7.18.5,11.27l0,1.06c-6.47-10-16.47-17.32-29.39-21.47a74.67,74.67,0,0,0-22.63-3.59,6,6,0,0,0-4.12,1.82L82.39,247.46A5.95,5.95,0,0,0,91,255.72l8.93-9.26c7.69.38,32.44,3.25,42.06,24.45A32.14,32.14,0,0,1,110.13,298.12Zm25,11.23v-7.1a44,44,0,0,0,15.71-19.39,65.49,65.49,0,0,0,3.39,14.21C151.89,300,146.28,305.35,135.16,309.35Zm57.25-96.52V198.07a6,6,0,0,0-.59-2.59,57.07,57.07,0,0,1-5.77-25V157.76A45,45,0,0,1,231,112.82H314.1v57.66a57.07,57.07,0,0,1-5.77,25,6,6,0,0,0-.59,2.59V215a57.11,57.11,0,0,1-18.24,42.08,59.21,59.21,0,0,1-4.57,3.87l-.1.07a57.2,57.2,0,0,1-38.6,11.52C216.05,270.6,192.41,244.37,192.41,212.83Zm33.5,119.71a.37.37,0,0,1-.33.12.38.38,0,0,1-.3-.18l-18.5-27.75,6-6.26,28.07,19.19Zm24.16-23-32.22-22V276.46a67,67,0,0,0,27.6,8q2.35.15,4.68.15a68.91,68.91,0,0,0,32.16-7.88v10.87Zm24.8,22.9a.38.38,0,0,1-.3.18.37.37,0,0,1-.33-.12l-14.89-14.89,28.07-19.19,6,6.26Zm108.63-5L370,314a16.32,16.32,0,0,0,.37-3.53v-2.51A41.72,41.72,0,0,0,382.16,310l1.37,0a44.19,44.19,0,0,0,13.12-2v2.4a14.22,14.22,0,0,0,.43,3.47ZM405.94,289a32,32,0,0,1-23.43,9.08c-17.22-.52-31.22-15.68-31.22-33.8V253.18a5.94,5.94,0,0,0-.63-2.66L347,243.17a19.6,19.6,0,0,1-2.06-8.72v-.35a25.89,25.89,0,0,1,25.86-25.86h51.3v24.71a26,26,0,0,1-2.73,11.56l-3,6a6,6,0,0,0-.63,2.66V265.9A32,32,0,0,1,405.94,289Z"/><path class="cls-1" d="M421.67,349a6,6,0,0,0-5.95,5.95v38.17a5.95,5.95,0,0,0,11.9,0V355A6,6,0,0,0,421.67,349Z"/><path class="cls-1" d="M78.33,356.87a6,6,0,0,0-5.95,5.95v30.3a5.95,5.95,0,0,0,11.9,0v-30.3A6,6,0,0,0,78.33,356.87Z"/><path class="cls-1" d="M298.81,172.64c-22.5-22.5-69.58-18.2-88.78-15.31A12.21,12.21,0,0,0,199.6,169.5v13.71a5.95,5.95,0,1,0,11.9,0V169.5a.39.39,0,0,1,.31-.4,188,188,0,0,1,38.65-1.89c18.55,1.24,32,5.89,39.94,13.84a5.95,5.95,0,1,0,8.41-8.41Z"/><path class="cls-1" d="M180.1,361.73a6,6,0,0,0-5.95,5.95v25.44a5.95,5.95,0,1,0,11.9,0V367.68A6,6,0,0,0,180.1,361.73Z"/><path class="cls-1" d="M320,361.73a6,6,0,0,0-5.95,5.95v25.44a5.95,5.95,0,1,0,11.9,0V367.68A6,6,0,0,0,320,361.73Z"/></svg>