<svg id="Layer_1" data-name="Layer 1" xmlns="http://www.w3.org/2000/svg" viewBox="0 0 500 500"><defs><style>.cls-1{fill:#00c1db;}</style></defs><title>logistics</title><path class="cls-1" d="M345.36,91.46H280.82a31.39,31.39,0,0,0-61.65,0H154.64a31.43,31.43,0,0,0-31.39,31.39V402.58A31.43,31.43,0,0,0,154.64,434H345.36a31.43,31.43,0,0,0,31.39-31.39V122.85A31.43,31.43,0,0,0,345.36,91.46ZM205.1,110.13a6.76,6.76,0,0,1,6.75-6.75h12.71a6,6,0,0,0,6-6,19.47,19.47,0,1,1,38.94,0,6,6,0,0,0,6,6h12.72a6.76,6.76,0,0,1,6.75,6.75v12.72a6.76,6.76,0,0,1-6.75,6.75H211.85a6.76,6.76,0,0,1-6.75-6.74v0s0,0,0,0V110.13Zm6.75,31.39h76.29a18.7,18.7,0,0,0,17.69-12.72H339.4V396.62H160.6V128.81h33.56A18.7,18.7,0,0,0,211.85,141.52Zm153,261.06a19.49,19.49,0,0,1-19.47,19.47H154.64a19.49,19.49,0,0,1-19.47-19.47V122.85a19.49,19.49,0,0,1,19.47-19.47h39.81a18.58,18.58,0,0,0-1.27,6.75v6.75H154.64a6,6,0,0,0-6,6V402.58a6,6,0,0,0,6,6H345.36a6,6,0,0,0,6-6V122.85a6,6,0,0,0-6-6H306.82v-6.75a18.58,18.58,0,0,0-1.27-6.75h39.81a19.49,19.49,0,0,1,19.47,19.47Z"/><path class="cls-1" d="M250,109.74a6,6,0,0,0,6-6V97.42a6,6,0,0,0-11.92,0v6.36A6,6,0,0,0,250,109.74Z"/><path class="cls-1" d="M180.46,180.07a6,6,0,0,0,6,6h82.65a6,6,0,1,0,0-11.92H186.42A6,6,0,0,0,180.46,180.07Z"/><path class="cls-1" d="M186.42,211.46H250a6,6,0,1,0,0-11.92H186.42a6,6,0,0,0,0,11.92Z"/><path class="cls-1" d="M292.38,209a6,6,0,0,0,9.7,0l22.71-31.79a6,6,0,0,0-9.7-6.93l-17.86,25L293,189.32a6,6,0,0,0-9.7,6.93Z"/><path class="cls-1" d="M269.07,242.27H186.42a6,6,0,0,0,0,11.92h82.65a6,6,0,0,0,0-11.92Z"/><path class="cls-1" d="M186.42,279.62H250a6,6,0,1,0,0-11.92H186.42a6,6,0,0,0,0,11.92Z"/><path class="cls-1" d="M292.38,277.12a6,6,0,0,0,9.7,0l22.71-31.79a6,6,0,0,0-9.7-6.93l-17.86,25L293,257.48a6,6,0,0,0-9.7,6.93Z"/><path class="cls-1" d="M269.07,310.43H186.42a6,6,0,0,0,0,11.92h82.65a6,6,0,1,0,0-11.92Z"/><path class="cls-1" d="M186.42,347.78H250a6,6,0,1,0,0-11.92H186.42a6,6,0,0,0,0,11.92Z"/><path class="cls-1" d="M292.38,345.28a6,6,0,0,0,9.7,0l22.71-31.79a6,6,0,0,0-9.7-6.93l-17.86,25L293,325.64a6,6,0,0,0-9.7,6.93Z"/></svg>