<svg id="Layer_1" data-name="Layer 1" xmlns="http://www.w3.org/2000/svg" viewBox="0 0 500 500"><defs><style>.cls-1{fill:#00c1db;}</style></defs><title>manufacturer</title><path class="cls-1" d="M282.71,434.57H87a5.17,5.17,0,0,1-5.17-5.17V282.52A5.17,5.17,0,0,1,87,277.35H282.71a5.17,5.17,0,0,1,5.17,5.17V429.4A5.17,5.17,0,0,1,282.71,434.57ZM92.2,424.24H277.55V287.69H92.2Z"/><path class="cls-1" d="M399.52,344.15a5.17,5.17,0,0,1-5.17-5.17v-53.9L341,244.57l-55.16,42.06a5.17,5.17,0,0,1-6.27-8.22L337.87,234a5.16,5.16,0,0,1,6.26,0l58.52,44.45a5.16,5.16,0,0,1,2,4.11V339A5.17,5.17,0,0,1,399.52,344.15Z"/><path class="cls-1" d="M399.52,434.57H282.71a5.17,5.17,0,1,1,0-10.34H394.36V359.86a5.17,5.17,0,0,1,10.34,0V429.4A5.17,5.17,0,0,1,399.52,434.57Z"/><path class="cls-1" d="M87,287.69a5.17,5.17,0,0,1-3.1-9.31l59.44-44.45a5.18,5.18,0,0,1,3.09-1H341a5.17,5.17,0,1,1,0,10.34H148.19L90.13,286.66A5.13,5.13,0,0,1,87,287.69Z"/><path class="cls-1" d="M195.5,189.47H165.77a13.39,13.39,0,1,1,0-26.78H195.5a13.39,13.39,0,1,1,0,26.78ZM165.77,173a3.06,3.06,0,1,0,0,6.11H195.5a3.06,3.06,0,1,0,0-6.11Z"/><path class="cls-1" d="M258.93,189.47H229.2a13.39,13.39,0,1,1,0-26.78h29.73a13.39,13.39,0,1,1,0,26.78ZM229.2,173a3.06,3.06,0,1,0,0,6.11h29.73a3.06,3.06,0,1,0,0-6.11Z"/><path class="cls-1" d="M322.84,189.47H293.1a13.39,13.39,0,0,1,0-26.78h29.74a13.39,13.39,0,0,1,0,26.78ZM293.1,173a3.06,3.06,0,0,0,0,6.11h29.74a3.06,3.06,0,0,0,0-6.11Z"/><path class="cls-1" d="M163.74,243.24a5.17,5.17,0,0,1-5.17-5.17V184.3a5.17,5.17,0,1,1,10.34,0v53.77A5.17,5.17,0,0,1,163.74,243.24Z"/><path class="cls-1" d="M198.24,243.24a5.17,5.17,0,0,1-5.17-5.17V184.3a5.17,5.17,0,1,1,10.34,0v53.77A5.17,5.17,0,0,1,198.24,243.24Z"/><path class="cls-1" d="M226.81,243.24a5.17,5.17,0,0,1-5.17-5.17V184.3a5.17,5.17,0,1,1,10.34,0v53.77A5.17,5.17,0,0,1,226.81,243.24Z"/><path class="cls-1" d="M261.32,243.24a5.17,5.17,0,0,1-5.17-5.17V184.3a5.17,5.17,0,1,1,10.34,0v53.77A5.17,5.17,0,0,1,261.32,243.24Z"/><path class="cls-1" d="M290.72,243.24a5.17,5.17,0,0,1-5.17-5.17V184.3a5.17,5.17,0,1,1,10.34,0v53.77A5.17,5.17,0,0,1,290.72,243.24Z"/><path class="cls-1" d="M325.22,243.24a5.17,5.17,0,0,1-5.17-5.17V184.3a5.17,5.17,0,1,1,10.34,0v53.77A5.17,5.17,0,0,1,325.22,243.24Z"/><path class="cls-1" d="M141.24,323H126.3a13.39,13.39,0,1,1,0-26.78h14.93a13.39,13.39,0,0,1,0,26.78ZM126.3,306.53a3.06,3.06,0,1,0,0,6.11h14.93a3.06,3.06,0,0,0,0-6.11Z"/><path class="cls-1" d="M193.63,323H178.7a13.39,13.39,0,1,1,0-26.78h14.93a13.39,13.39,0,0,1,0,26.78ZM178.7,306.53a3.06,3.06,0,1,0,0,6.11h14.93a3.06,3.06,0,0,0,0-6.11Z"/><path class="cls-1" d="M245.19,323H230.25a13.39,13.39,0,1,1,0-26.78h14.93a13.39,13.39,0,1,1,0,26.78Zm-14.93-16.45a3.06,3.06,0,1,0,0,6.11h14.93a3.06,3.06,0,1,0,0-6.11Z"/><path class="cls-1" d="M141.65,355.94H126.72a13.39,13.39,0,0,1,0-26.78h14.93a13.39,13.39,0,1,1,0,26.78Zm-14.93-16.45a3.06,3.06,0,0,0,0,6.11h14.93a3.06,3.06,0,1,0,0-6.11Z"/><path class="cls-1" d="M194.05,355.94H179.12a13.39,13.39,0,0,1,0-26.78h14.93a13.39,13.39,0,1,1,0,26.78Zm-14.93-16.45a3.06,3.06,0,0,0,0,6.11h14.93a3.06,3.06,0,1,0,0-6.11Z"/><path class="cls-1" d="M245.6,355.94H230.68a13.39,13.39,0,1,1,0-26.78H245.6a13.39,13.39,0,1,1,0,26.78Zm-14.93-16.45a3.06,3.06,0,1,0,0,6.11H245.6a3.06,3.06,0,1,0,0-6.11Z"/><path class="cls-1" d="M253.41,433.3a5.17,5.17,0,0,1-5.17-5.17V374.8H123.67v53.33a5.17,5.17,0,1,1-10.34,0V372.34a7.88,7.88,0,0,1,7.87-7.87H250.7a7.88,7.88,0,0,1,7.88,7.87v55.79A5.17,5.17,0,0,1,253.41,433.3Z"/><path class="cls-1" d="M301.61,173a5.17,5.17,0,0,1-5.17-5.16c0-2.8-.09-68.57,0-74.22.1-6.59.23-15.79,9.89-23.47,5.93-4.71,14.82-4.73,20.73-4.73H364c13.25,0,21.82,7.64,21.82,19.47,0,13.6-12.22,20.84-21,20.84H331.06c-2.33,0-3.35.58-3.55.81s-.86,1-.86,5.19v56.12a5.17,5.17,0,1,1-10.34,0V111.73c0-5,.58-8.82,3.46-12.05,2.48-2.8,6.38-4.28,11.28-4.28h33.71c2.74,0,10.7-2.58,10.7-10.5,0-6.06-3.86-9.13-11.48-9.13H327.1c-4.25,0-11.23,0-14.33,2.48-5.83,4.64-5.9,9.69-6,15v.51c-.09,5.57,0,73.37,0,74.05a5.17,5.17,0,0,1-5.16,5.17Z"/><path class="cls-1" d="M248.44,172.19a5.17,5.17,0,0,1-5.17-5.17V129.85c0-5,.58-8.8,3.45-12,2.5-2.81,6.4-4.28,11.29-4.28h43.55a5.17,5.17,0,0,1,0,10.34H258c-2.33,0-3.37.59-3.56.81s-.85,1-.85,5.18V167A5.17,5.17,0,0,1,248.44,172.19Z"/><path class="cls-1" d="M228.57,172.19A5.17,5.17,0,0,1,223.4,167c0-2-.09-49.63,0-55.29.1-6.59.23-15.79,9.89-23.47,5.92-4.71,14.8-4.72,20.71-4.72h47.57a5.17,5.17,0,0,1,0,10.34H254.06c-4.54,0-11.24,0-14.33,2.47-5.83,4.64-5.91,9.69-6,15-.1,6.09,0,55.13,0,55.63a5.17,5.17,0,0,1-5.16,5.18Z"/><path class="cls-1" d="M187.12,172.75a5.17,5.17,0,0,1-5.17-5.17V144.83c0-5,.58-8.81,3.46-12.05,2.48-2.8,6.38-4.28,11.28-4.28h31.83a5.17,5.17,0,0,1,0,10.34H196.7c-2.33,0-3.36.59-3.55.81s-.85,1-.85,5.19v22.75A5.17,5.17,0,0,1,187.12,172.75Z"/><path class="cls-1" d="M167.25,172.75a5.17,5.17,0,0,1-5.17-5.15c0-1.44-.09-35.21,0-40.87.1-6.59.23-15.79,9.89-23.47,5.94-4.72,15-4.91,20.77-4.72h35.79a5.17,5.17,0,0,1,0,10.34H192.74c-4.54,0-11.24,0-14.33,2.47-5.83,4.64-5.9,9.69-6,15v.51c-.09,5.57,0,40.33,0,40.68a5.17,5.17,0,0,1-5.15,5.18Z"/><path class="cls-1" d="M404.74,159.43H373.17a13.39,13.39,0,1,1,0-26.78h31.57a13.39,13.39,0,1,1,0,26.78ZM373.17,143a3.06,3.06,0,1,0,0,6.11h31.57a3.06,3.06,0,1,0,0-6.11Z"/></svg>